<svg width="146" height="37" viewBox="0 0 146 37" fill="none" xmlns="http://www.w3.org/2000/svg">
<path d="M51.42 25.3162C50.2333 25.3162 49.2133 25.1362 48.36 24.7762C47.5067 24.4162 46.86 23.9429 46.42 23.3562C45.98 22.7695 45.7467 22.1362 45.72 21.4562C45.72 21.3362 45.76 21.2362 45.84 21.1562C45.92 21.0762 46.02 21.0362 46.14 21.0362H47.92C48.08 21.0362 48.2 21.0695 48.28 21.1362C48.3733 21.1895 48.46 21.2829 48.54 21.4162C48.6733 21.8695 48.98 22.2495 49.46 22.5562C49.94 22.8629 50.5933 23.0162 51.42 23.0162C52.3667 23.0162 53.08 22.8629 53.56 22.5562C54.04 22.2362 54.28 21.7962 54.28 21.2362C54.28 20.8629 54.1533 20.5562 53.9 20.3162C53.66 20.0762 53.2933 19.8695 52.8 19.6962C52.32 19.5229 51.6 19.3095 50.64 19.0562C49.0667 18.6829 47.9133 18.1895 47.18 17.5762C46.46 16.9495 46.1 16.0629 46.1 14.9162C46.1 14.1429 46.3067 13.4562 46.72 12.8562C47.1467 12.2562 47.7533 11.7829 48.54 11.4362C49.34 11.0895 50.2667 10.9162 51.32 10.9162C52.4133 10.9162 53.36 11.1095 54.16 11.4962C54.96 11.8829 55.5667 12.3695 55.98 12.9562C56.4067 13.5295 56.6333 14.1029 56.66 14.6762C56.66 14.7962 56.62 14.8962 56.54 14.9762C56.46 15.0562 56.36 15.0962 56.24 15.0962H54.38C54.1 15.0962 53.9067 14.9695 53.8 14.7162C53.72 14.2895 53.4533 13.9362 53 13.6562C52.5467 13.3629 51.9867 13.2162 51.32 13.2162C50.5733 13.2162 49.9867 13.3562 49.56 13.6362C49.1333 13.9162 48.92 14.3229 48.92 14.8562C48.92 15.2295 49.0267 15.5362 49.24 15.7762C49.4533 16.0162 49.7867 16.2295 50.24 16.4162C50.7067 16.6029 51.3733 16.8095 52.24 17.0362C53.4133 17.3029 54.3467 17.6029 55.04 17.9362C55.7467 18.2695 56.2667 18.6895 56.6 19.1962C56.9333 19.7029 57.1 20.3495 57.1 21.1362C57.1 21.9895 56.86 22.7362 56.38 23.3762C55.9133 24.0029 55.2467 24.4829 54.38 24.8162C53.5267 25.1495 52.54 25.3162 51.42 25.3162ZM59.632 25.1162C59.4987 25.1162 59.3854 25.0695 59.292 24.9762C59.1987 24.8829 59.152 24.7695 59.152 24.6362V15.1962C59.152 15.0629 59.1987 14.9495 59.292 14.8562C59.3854 14.7629 59.4987 14.7162 59.632 14.7162H61.192C61.3254 14.7162 61.4387 14.7629 61.532 14.8562C61.6254 14.9495 61.672 15.0629 61.672 15.1962V15.8762C62.3654 14.9695 63.332 14.5162 64.572 14.5162C66.052 14.5162 67.0854 15.1095 67.672 16.2962C67.992 15.7629 68.4454 15.3362 69.032 15.0162C69.6187 14.6829 70.252 14.5162 70.932 14.5162C72.0254 14.5162 72.9187 14.8895 73.612 15.6362C74.3054 16.3829 74.652 17.4695 74.652 18.8962V24.6362C74.652 24.7695 74.6054 24.8829 74.512 24.9762C74.432 25.0695 74.3187 25.1162 74.172 25.1162H72.532C72.3987 25.1162 72.2854 25.0695 72.192 24.9762C72.0987 24.8829 72.052 24.7695 72.052 24.6362V19.0562C72.052 18.2162 71.872 17.6095 71.512 17.2362C71.1654 16.8495 70.6987 16.6562 70.112 16.6562C69.592 16.6562 69.1454 16.8495 68.772 17.2362C68.412 17.6229 68.232 18.2295 68.232 19.0562V24.6362C68.232 24.7695 68.1854 24.8829 68.092 24.9762C67.9987 25.0695 67.8854 25.1162 67.752 25.1162H66.112C65.9787 25.1162 65.8654 25.0695 65.772 24.9762C65.6787 24.8829 65.632 24.7695 65.632 24.6362V19.0562C65.632 18.2162 65.4454 17.6095 65.072 17.2362C64.712 16.8495 64.252 16.6562 63.692 16.6562C63.1587 16.6562 62.7054 16.8495 62.332 17.2362C61.972 17.6229 61.792 18.2295 61.792 19.0562V24.6362C61.792 24.7695 61.7454 24.8829 61.652 24.9762C61.5587 25.0695 61.4454 25.1162 61.312 25.1162H59.632ZM80.2189 25.3162C79.5389 25.3162 78.9122 25.1829 78.3389 24.9162C77.7789 24.6362 77.3322 24.2629 76.9989 23.7962C76.6789 23.3295 76.5189 22.8162 76.5189 22.2562C76.5189 21.3495 76.8856 20.6162 77.6189 20.0562C78.3522 19.4962 79.3589 19.1162 80.6389 18.9162L83.3789 18.5162V18.0962C83.3789 17.5095 83.2322 17.0695 82.9389 16.7762C82.6456 16.4829 82.1722 16.3362 81.5189 16.3362C81.0789 16.3362 80.7189 16.4229 80.4389 16.5962C80.1722 16.7562 79.9589 16.9162 79.7989 17.0762C79.6389 17.2495 79.5322 17.3629 79.4789 17.4162C79.4256 17.5762 79.3256 17.6562 79.1789 17.6562H77.6389C77.5189 17.6562 77.4122 17.6162 77.3189 17.5362C77.2389 17.4562 77.1989 17.3495 77.1989 17.2162C77.2122 16.8829 77.3722 16.5029 77.6789 16.0762C77.9989 15.6495 78.4856 15.2829 79.1389 14.9762C79.7922 14.6695 80.5922 14.5162 81.5389 14.5162C83.1122 14.5162 84.2589 14.8695 84.9789 15.5762C85.6989 16.2829 86.0589 17.2095 86.0589 18.3562V24.6362C86.0589 24.7695 86.0122 24.8829 85.9189 24.9762C85.8389 25.0695 85.7256 25.1162 85.5789 25.1162H83.9589C83.8256 25.1162 83.7122 25.0695 83.6189 24.9762C83.5256 24.8829 83.4789 24.7695 83.4789 24.6362V23.8562C83.1856 24.2829 82.7656 24.6362 82.2189 24.9162C81.6856 25.1829 81.0189 25.3162 80.2189 25.3162ZM80.8989 23.4162C81.6322 23.4162 82.2322 23.1762 82.6989 22.6962C83.1656 22.2162 83.3989 21.5162 83.3989 20.5962V20.1762L81.3989 20.4962C80.6256 20.6162 80.0389 20.8095 79.6389 21.0762C79.2522 21.3429 79.0589 21.6695 79.0589 22.0562C79.0589 22.4829 79.2389 22.8162 79.5989 23.0562C79.9589 23.2962 80.3922 23.4162 80.8989 23.4162ZM89.1047 25.1162C88.9714 25.1162 88.858 25.0695 88.7647 24.9762C88.6714 24.8829 88.6247 24.7695 88.6247 24.6362V15.2162C88.6247 15.0829 88.6714 14.9695 88.7647 14.8762C88.858 14.7695 88.9714 14.7162 89.1047 14.7162H90.7247C90.8714 14.7162 90.9914 14.7629 91.0847 14.8562C91.178 14.9495 91.2247 15.0695 91.2247 15.2162V16.0362C91.5447 15.6095 91.9447 15.2829 92.4247 15.0562C92.918 14.8295 93.478 14.7162 94.1047 14.7162H94.9247C95.0714 14.7162 95.1847 14.7629 95.2647 14.8562C95.358 14.9362 95.4047 15.0495 95.4047 15.1962V16.6362C95.4047 16.7695 95.358 16.8829 95.2647 16.9762C95.1847 17.0695 95.0714 17.1162 94.9247 17.1162H93.3647C92.738 17.1162 92.2447 17.2962 91.8847 17.6562C91.5247 18.0162 91.3447 18.5095 91.3447 19.1362V24.6362C91.3447 24.7695 91.298 24.8829 91.2047 24.9762C91.1114 25.0695 90.9914 25.1162 90.8447 25.1162H89.1047ZM101.665 25.1162C100.451 25.1162 99.5379 24.8029 98.9245 24.1762C98.3245 23.5362 98.0245 22.6029 98.0245 21.3762V16.8362H96.4445C96.3112 16.8362 96.1979 16.7895 96.1045 16.6962C96.0112 16.5895 95.9645 16.4695 95.9645 16.3362V15.1962C95.9645 15.0629 96.0112 14.9495 96.1045 14.8562C96.1979 14.7629 96.3112 14.7162 96.4445 14.7162H98.0245V11.3962C98.0245 11.2495 98.0712 11.1362 98.1645 11.0562C98.2579 10.9629 98.3712 10.9162 98.5045 10.9162H100.125C100.271 10.9162 100.385 10.9629 100.465 11.0562C100.558 11.1362 100.605 11.2495 100.605 11.3962V14.7162H103.105C103.251 14.7162 103.365 14.7629 103.445 14.8562C103.538 14.9362 103.585 15.0495 103.585 15.1962V16.3362C103.585 16.4829 103.538 16.6029 103.445 16.6962C103.351 16.7895 103.238 16.8362 103.105 16.8362H100.605V21.1762C100.605 21.7495 100.705 22.1829 100.905 22.4762C101.105 22.7695 101.438 22.9162 101.905 22.9162H103.285C103.418 22.9162 103.531 22.9629 103.625 23.0562C103.718 23.1495 103.765 23.2629 103.765 23.3962V24.6362C103.765 24.7695 103.718 24.8829 103.625 24.9762C103.545 25.0695 103.431 25.1162 103.285 25.1162H101.665ZM109.619 25.1162C109.192 25.1162 108.919 24.9162 108.799 24.5162L104.719 11.7162L104.679 11.5362C104.679 11.4295 104.719 11.3362 104.799 11.2562C104.892 11.1629 104.999 11.1162 105.119 11.1162H107.599C107.785 11.1162 107.939 11.1695 108.059 11.2762C108.192 11.3829 108.279 11.5029 108.319 11.6362L111.159 20.8762L113.979 11.6362C114.019 11.5029 114.099 11.3829 114.219 11.2762C114.352 11.1695 114.512 11.1162 114.699 11.1162H117.199C117.305 11.1162 117.399 11.1629 117.479 11.2562C117.572 11.3362 117.619 11.4295 117.619 11.5362L117.579 11.7162L113.499 24.5162C113.379 24.9162 113.105 25.1162 112.679 25.1162H109.619ZM119.986 25.1162C119.853 25.1162 119.733 25.0695 119.626 24.9762C119.533 24.8695 119.486 24.7495 119.486 24.6162V11.6162C119.486 11.4695 119.533 11.3495 119.626 11.2562C119.733 11.1629 119.853 11.1162 119.986 11.1162H125.586C127.293 11.1162 128.633 11.5095 129.606 12.2962C130.593 13.0829 131.086 14.2295 131.086 15.7362C131.086 17.2295 130.599 18.3562 129.626 19.1162C128.653 19.8629 127.306 20.2362 125.586 20.2362H123.206V24.6162C123.206 24.7629 123.153 24.8829 123.046 24.9762C122.953 25.0695 122.833 25.1162 122.686 25.1162H119.986ZM125.486 17.4762C126.073 17.4762 126.533 17.3295 126.866 17.0362C127.199 16.7295 127.366 16.2829 127.366 15.6962C127.366 15.1495 127.206 14.7162 126.886 14.3962C126.579 14.0629 126.113 13.8962 125.486 13.8962H123.146V17.4762H125.486ZM133.502 25.1162C133.368 25.1162 133.248 25.0695 133.142 24.9762C133.048 24.8695 133.002 24.7495 133.002 24.6162V11.6162C133.002 11.4695 133.048 11.3495 133.142 11.2562C133.248 11.1629 133.368 11.1162 133.502 11.1162H135.622C135.955 11.1162 136.182 11.2429 136.302 11.4962L141.182 19.1762V11.6162C141.182 11.4695 141.228 11.3495 141.322 11.2562C141.428 11.1629 141.548 11.1162 141.682 11.1162H144.082C144.228 11.1162 144.348 11.1629 144.442 11.2562C144.535 11.3495 144.582 11.4695 144.582 11.6162V24.5962C144.582 24.7429 144.535 24.8695 144.442 24.9762C144.348 25.0695 144.228 25.1162 144.082 25.1162H141.942C141.648 25.1162 141.428 24.9895 141.282 24.7362L136.402 17.3362V24.6162C136.402 24.7495 136.355 24.8695 136.262 24.9762C136.168 25.0695 136.048 25.1162 135.902 25.1162H133.502Z" fill="#0B132A"/>
<path d="M31.1473 13.6477L31.1255 13.626C31.1238 13.6247 31.1224 13.6231 31.1215 13.6212L17.5006 0L3.87983 13.6209C3.87826 13.6225 3.8758 13.6256 3.8758 13.6256L3.85333 13.6474C1.77053 15.7419 0.447586 18.4725 0.0948177 21.4052C-0.25795 24.3379 0.379698 27.3044 1.90639 29.8331C3.43309 32.3619 5.76122 34.3077 8.52069 35.3612C11.2802 36.4147 14.3126 36.5157 17.136 35.6477C17.3735 35.5751 17.6275 35.5751 17.8651 35.6477C20.6882 36.5153 23.7205 36.4144 26.4798 35.3607C29.2391 34.307 31.567 32.3613 33.0936 29.8328C34.6202 27.3042 35.2579 24.3379 34.9053 21.4054C34.5526 18.4728 33.2299 15.7422 31.1473 13.6477ZM8.7232 22.6298C8.65689 22.6961 8.6043 22.7749 8.56844 22.8615C8.53257 22.948 8.5141 23.0408 8.51412 23.1346C8.53835 25.5386 9.21776 27.8904 10.4792 29.9371C10.5079 29.9835 10.5211 30.0379 10.517 30.0922C10.513 30.1465 10.4918 30.1982 10.4566 30.2399C10.4213 30.2816 10.3738 30.311 10.3209 30.324C10.2679 30.337 10.2122 30.333 10.1616 30.3124C9.21332 29.9135 8.35182 29.3336 7.62531 28.6053C6.13646 27.1162 5.29946 25.097 5.2981 22.9912C5.29675 20.8855 6.13117 18.8652 7.61812 17.3743L17.5006 7.49273L27.3826 17.3743C28.8698 18.865 29.7045 20.8853 29.703 22.9912C29.7018 25.097 28.8647 27.1162 27.3757 28.6053C26.6492 29.3336 25.7877 29.9135 24.8396 30.3124C24.7889 30.333 24.7332 30.337 24.6802 30.324C24.6273 30.311 24.5798 30.2814 24.5445 30.2399C24.5093 30.1982 24.488 30.1465 24.484 30.092C24.4799 30.0377 24.4931 29.9833 24.5218 29.9369C25.7835 27.8904 26.4633 25.5386 26.4879 23.1346C26.4879 23.0408 26.4692 22.948 26.4332 22.8613C26.3971 22.7746 26.3444 22.696 26.2779 22.6296L21.6037 17.6717C21.5571 17.6329 21.4985 17.6116 21.4378 17.6116C21.3773 17.6116 21.3186 17.6329 21.2721 17.6717C21.2255 17.7104 21.1942 17.7644 21.1833 17.824C21.1724 17.8837 21.1828 17.945 21.2127 17.9978C23.0281 21.283 21.467 26.0017 18.8637 28.6053L18.85 28.6191C18.4907 28.9745 18.0056 29.1738 17.5002 29.1736C16.9948 29.1734 16.5098 28.9738 16.1508 28.6182L16.1382 28.6053C13.5339 26.0017 11.9736 21.2835 13.7893 17.9985C13.8192 17.9457 13.8296 17.8844 13.8187 17.8247C13.8079 17.7651 13.7764 17.7111 13.7299 17.6724C13.6834 17.6336 13.6247 17.6123 13.5642 17.6123C13.5036 17.6123 13.4449 17.6336 13.3984 17.6724L8.7232 22.6298Z" fill="#F53838"/>
</svg>
